<svg version="1.0" xmlns="http://www.w3.org/2000/svg" 
    viewBox="0 0 90.000000 89.000000" 
    preserveAspectRatio="xMidYMid meet">

<g transform="translate(0.000000,89.000000) scale(0.100000,-0.100000)" 
    fill="#595959" stroke="none">

<path d="M390 821 c-86 -28 -141 -74 -181 -151 -34 -65 -32 -171 4
    -258 45 -108 199 -343 233 -356 24 -9 40 3 92 73 69 93 138 208 
    169 283 38 90 38 193 1 263 -31 60 -67 95 -128 125 -48 24 -147 
    35 -190 21z m157 -216 c74 -56 89 -83 53 -92 -16 -4 -20 -15 -22
    -62 l-3 -56 -35 0 -35 0 -3 58 -3 57 -39 0 -39 0 -3 -57 -3 -58 
    -35 0 -35 0 -3 56 c-2 47 -6 58 -22 62 -11 3 -20 12 -20 21 0 17 
    137 126 159 126 8 0 47 -25 88 -55z"/>
</g>
</svg>
