<svg version="1.0" xmlns="http://www.w3.org/2000/svg"
 viewBox="0 0 96.000000 96.000000"
 preserveAspectRatio="xMidYMid meet">

<g transform="translate(0.000000,96.000000) scale(0.100000,-0.100000)"
fill="#595959" stroke="none">
<path d="M400 931 c-90 -29 -165 -96 -203 -180 -27 -59 -28 -172 -3 -256 39
-130 154 -334 250 -440 l36 -40 36 40 c90 100 208 307 246 430 29 94 30 203 1
266 -50 111 -150 180 -268 185 -38 2 -81 0 -95 -5z m163 -241 c39 -44 38 -107
-2 -152 -26 -29 -35 -33 -81 -33 -46 0 -55 4 -81 33 -31 35 -39 94 -18 133 34
64 132 75 182 19z"/>
</g>
</svg>
